<svg xmlns="http://www.w3.org/2000/svg" viewBox="0 0 140 140" role="img" aria-label="Seizu mark">
  <title>Seizu</title>
  <circle cx="70" cy="70" r="54" fill="none" stroke="#8fb4ff" stroke-width="2.2" opacity="0.35"/>
  <circle cx="70" cy="70" r="54" fill="none" stroke="#8fb4ff" stroke-width="2.2" stroke-dasharray="3 9" opacity="0.85"/>
  <g stroke="#8fb4ff" stroke-width="2" opacity="0.85" stroke-linecap="round">
    <line x1="70" y1="6" x2="70" y2="16"/>
    <line x1="70" y1="124" x2="70" y2="134"/>
    <line x1="6" y1="70" x2="16" y2="70"/>
    <line x1="124" y1="70" x2="134" y2="70"/>
  </g>
  <g stroke="#8fb4ff" stroke-width="1.4" stroke-linecap="round">
    <line x1="40" y1="55" x2="62" y2="42"/>
    <line x1="62" y1="42" x2="86" y2="52"/>
    <line x1="86" y1="52" x2="100" y2="78"/>
    <line x1="62" y1="42" x2="68" y2="78"/>
    <line x1="68" y1="78" x2="100" y2="78"/>
    <line x1="68" y1="78" x2="50" y2="98"/>
  </g>
  <g>
    <circle cx="40" cy="55" r="3" fill="#8fb4ff"/>
    <circle cx="62" cy="42" r="4.2" fill="#f5c16c"/>
    <circle cx="86" cy="52" r="3" fill="#ffffff"/>
    <circle cx="100" cy="78" r="3.4" fill="#8fb4ff"/>
    <circle cx="68" cy="78" r="3.8" fill="#ffffff"/>
    <circle cx="50" cy="98" r="2.6" fill="#8fb4ff"/>
  </g>
</svg>
